<svg width="35" height="35" viewBox="0 0 35 35" fill="none" xmlns="http://www.w3.org/2000/svg">
<rect width="35" height="35" rx="8" fill="#FEDCFD"/>
<path d="M16.4375 12.0625C16.4375 11.6481 16.6021 11.2507 16.8951 10.9576C17.1882 10.6646 17.5856 10.5 18 10.5C18.4144 10.5 18.8118 10.6646 19.1049 10.9576C19.3979 11.2507 19.5625 11.6481 19.5625 12.0625C19.5625 12.4769 19.3979 12.8743 19.1049 13.1674C18.8118 13.4604 18.4144 13.625 18 13.625C17.5856 13.625 17.1882 13.4604 16.8951 13.1674C16.6021 12.8743 16.4375 12.4769 16.4375 12.0625ZM18 9.25C17.5637 9.24991 17.1334 9.35132 16.743 9.54621C16.3527 9.74111 16.013 10.0241 15.7509 10.3729C15.4888 10.7217 15.3115 11.1267 15.2329 11.5559C15.1543 11.985 15.1766 12.4266 15.2981 12.8456L12.4213 11.855C11.9429 11.7017 11.4236 11.7419 10.9746 11.9669C10.5255 12.1919 10.1825 12.5839 10.019 13.0588C9.85549 13.5338 9.88456 14.0538 10.1 14.5076C10.3153 14.9613 10.6999 15.3127 11.1712 15.4862L14.875 16.7625V19.1112C14.8751 19.2063 14.8535 19.3002 14.8119 19.3856L12.5669 23.9875C12.3469 24.4449 12.3168 24.9708 12.4834 25.4503C12.65 25.9298 12.9996 26.3238 13.4558 26.5463C13.912 26.7688 14.4378 26.8017 14.9181 26.6377C15.3985 26.4737 15.7944 26.1263 16.0194 25.6712L17.9987 21.6125L19.9781 25.6712C20.0858 25.9025 20.2386 26.11 20.4273 26.2816C20.6161 26.4532 20.8372 26.5855 21.0777 26.6707C21.3181 26.7559 21.5732 26.7923 21.8279 26.7779C22.0826 26.7634 22.3319 26.6984 22.5612 26.5865C22.7905 26.4747 22.9952 26.3183 23.1634 26.1265C23.3315 25.9346 23.4598 25.7112 23.5407 25.4692C23.6216 25.2273 23.6535 24.9716 23.6345 24.7172C23.6154 24.4628 23.5459 24.2148 23.43 23.9875L21.1881 19.3906C21.1466 19.3053 21.125 19.2117 21.125 19.1169V16.7625L24.8294 15.4869C25.3007 15.3133 25.6853 14.962 25.9007 14.5082C26.1161 14.0545 26.1451 13.5344 25.9816 13.0595C25.8182 12.5845 25.4751 12.1925 25.0261 11.9675C24.577 11.7425 24.0577 11.7023 23.5794 11.8556L20.7019 12.8456C20.8234 12.4266 20.8457 11.985 20.7671 11.5559C20.6885 11.1267 20.5112 10.7217 20.2491 10.3729C19.987 10.0241 19.6473 9.74111 19.257 9.54621C18.8666 9.35132 18.4363 9.24991 18 9.25ZM11.1625 13.4525C11.2825 13.1025 11.6644 12.9169 12.0144 13.0369L16.7794 14.6781C17.5703 14.9504 18.4297 14.9504 19.2206 14.6781L23.9856 13.0369C24.1538 12.9789 24.3381 12.9902 24.498 13.0681C24.6578 13.1461 24.7802 13.2843 24.8381 13.4525C24.8961 13.6207 24.8848 13.805 24.8069 13.9648C24.7289 14.1247 24.5907 14.2471 24.4225 14.305L20.5075 15.6531C20.3229 15.7166 20.1628 15.8361 20.0494 15.995C19.936 16.1539 19.8751 16.3442 19.875 16.5394V19.1169C19.8751 19.4017 19.9401 19.6828 20.065 19.9387L22.3069 24.5356C22.3488 24.6151 22.3742 24.7022 22.3818 24.7917C22.3894 24.8812 22.3789 24.9713 22.351 25.0567C22.3231 25.1421 22.2783 25.221 22.2193 25.2888C22.1603 25.3565 22.0882 25.4117 22.0075 25.4511C21.9267 25.4904 21.8389 25.5132 21.7492 25.518C21.6595 25.5227 21.5697 25.5094 21.4852 25.4788C21.4008 25.4482 21.3233 25.401 21.2575 25.3399C21.1916 25.2788 21.1387 25.2051 21.1019 25.1231L19.1219 21.065C18.6656 20.1287 17.3319 20.1287 16.875 21.065L14.8956 25.1231C14.8588 25.2051 14.8059 25.2788 14.74 25.3399C14.6742 25.401 14.5967 25.4482 14.5123 25.4788C14.4278 25.5094 14.338 25.5227 14.2483 25.518C14.1586 25.5132 14.0708 25.4904 13.99 25.4511C13.9093 25.4117 13.8372 25.3565 13.7782 25.2888C13.7192 25.221 13.6744 25.1421 13.6465 25.0567C13.6186 24.9713 13.6081 24.8812 13.6157 24.7917C13.6233 24.7022 13.6487 24.6151 13.6906 24.5356L15.935 19.9331C16.0599 19.6772 16.1249 19.3961 16.125 19.1112V16.5394C16.1249 16.3442 16.064 16.1539 15.9506 15.995C15.8372 15.8361 15.6771 15.7166 15.4925 15.6531L11.5775 14.305C11.4942 14.2763 11.4174 14.2315 11.3515 14.1731C11.2855 14.1148 11.2317 14.044 11.1931 13.9648C11.1545 13.8857 11.1319 13.7997 11.1265 13.7118C11.1212 13.6239 11.1338 13.5358 11.1625 13.4525Z" fill="#BD40BB"/>
</svg>
