<svg width="35" height="35" viewBox="0 0 35 35" fill="none" xmlns="http://www.w3.org/2000/svg">
<rect width="35" height="35" rx="8" fill="#D1F6C9"/>
<path d="M11.625 9C11.4592 9 11.3003 9.06585 11.1831 9.18306C11.0658 9.30027 11 9.45924 11 9.625V19C11 19.663 11.2634 20.2989 11.7322 20.7678C12.2011 21.2366 12.837 21.5 13.5 21.5H14.75V24C14.75 24.663 15.0134 25.2989 15.4822 25.7678C15.9511 26.2366 16.587 26.5 17.25 26.5C17.913 26.5 18.5489 26.2366 19.0178 25.7678C19.4866 25.2989 19.75 24.663 19.75 24V21.5H21C21.663 21.5 22.2989 21.2366 22.7678 20.7678C23.2366 20.2989 23.5 19.663 23.5 19V9.625C23.5 9.45924 23.4342 9.30027 23.3169 9.18306C23.1997 9.06585 23.0408 9 22.875 9H11.625ZM12.25 16.5V10.25H17.25V12.125C17.25 12.2908 17.3158 12.4497 17.4331 12.5669C17.5503 12.6842 17.7092 12.75 17.875 12.75C18.0408 12.75 18.1997 12.6842 18.3169 12.5669C18.4342 12.4497 18.5 12.2908 18.5 12.125V10.25H19.75V13.375C19.75 13.5408 19.8158 13.6997 19.9331 13.8169C20.0503 13.9342 20.2092 14 20.375 14C20.5408 14 20.6997 13.9342 20.8169 13.8169C20.9342 13.6997 21 13.5408 21 13.375V10.25H22.25V16.5H12.25ZM12.25 17.75H22.25V19C22.25 19.3315 22.1183 19.6495 21.8839 19.8839C21.6495 20.1183 21.3315 20.25 21 20.25H19.125C18.9592 20.25 18.8003 20.3158 18.6831 20.4331C18.5658 20.5503 18.5 20.7092 18.5 20.875V24C18.5 24.3315 18.3683 24.6495 18.1339 24.8839C17.8995 25.1183 17.5815 25.25 17.25 25.25C16.9185 25.25 16.6005 25.1183 16.3661 24.8839C16.1317 24.6495 16 24.3315 16 24V20.875C16 20.7092 15.9342 20.5503 15.8169 20.4331C15.6997 20.3158 15.5408 20.25 15.375 20.25H13.5C13.1685 20.25 12.8505 20.1183 12.6161 19.8839C12.3817 19.6495 12.25 19.3315 12.25 19V17.75Z" fill="#2BB92B"/>
</svg>
