<svg width="35" height="35" viewBox="0 0 35 35" fill="none" xmlns="http://www.w3.org/2000/svg">
<rect width="35" height="35" rx="8" fill="#F8C6AB"/>
<path fill-rule="evenodd" clip-rule="evenodd" d="M8.749 17.2641C8.9442 17.0474 9.21748 16.9171 9.50875 16.9018C9.80001 16.8865 10.0854 16.9876 10.3022 17.1827L13.9696 20.4827C14.1798 20.6796 14.3043 20.951 14.3166 21.2387C14.3288 21.5265 14.2277 21.8075 14.035 22.0215C13.8423 22.2355 13.5734 22.3654 13.286 22.3833C12.9986 22.4012 12.7156 22.3057 12.4978 22.1173L8.8304 18.8173C8.61369 18.6221 8.48338 18.3488 8.46811 18.0576C8.45285 17.7663 8.55388 17.4809 8.749 17.2641Z" fill="#FF8000"/>
<path fill-rule="evenodd" clip-rule="evenodd" d="M14.051 13.9641C14.2461 14.1809 14.3472 14.4663 14.3319 14.7576C14.3166 15.0488 14.1863 15.3221 13.9696 15.5173L10.3022 18.8173C10.1954 18.9173 10.0698 18.995 9.93266 19.0459C9.79551 19.0968 9.64959 19.1198 9.50344 19.1136C9.35729 19.1073 9.21384 19.072 9.0815 19.0097C8.94916 18.9474 8.83058 18.8593 8.7327 18.7506C8.63482 18.6419 8.5596 18.5147 8.51145 18.3766C8.4633 18.2385 8.44319 18.0921 8.45229 17.9461C8.46138 17.8001 8.49951 17.6574 8.56444 17.5263C8.62936 17.3952 8.71978 17.2784 8.8304 17.1827L12.4978 13.8827C12.7146 13.6876 13 13.5866 13.2913 13.6018C13.5825 13.6171 13.8558 13.7474 14.051 13.9641ZM27.251 17.2641C27.4461 17.4809 27.5472 17.7663 27.5319 18.0576C27.5166 18.3488 27.3863 18.6221 27.1696 18.8173L23.5022 22.1173C23.3954 22.2173 23.2698 22.295 23.1327 22.3459C22.9955 22.3968 22.8496 22.4198 22.7034 22.4136C22.5573 22.4073 22.4138 22.372 22.2815 22.3097C22.1492 22.2474 22.0306 22.1593 21.9327 22.0506C21.8348 21.9419 21.7596 21.8147 21.7115 21.6766C21.6633 21.5385 21.6432 21.3921 21.6523 21.2461C21.6614 21.1001 21.6995 20.9574 21.7644 20.8263C21.8294 20.6952 21.9198 20.5784 22.0304 20.4827L25.6978 17.1827C25.9146 16.9876 26.2 16.8866 26.4913 16.9018C26.7825 16.9171 27.0558 17.0474 27.251 17.2641Z" fill="#FF8000"/>
<path fill-rule="evenodd" clip-rule="evenodd" d="M21.949 13.9641C22.1442 13.7474 22.4175 13.6171 22.7087 13.6018C23 13.5865 23.2854 13.6876 23.5022 13.8827L27.1696 17.1827C27.3798 17.3796 27.5043 17.651 27.5166 17.9387C27.5288 18.2265 27.4277 18.5075 27.235 18.7215C27.0423 18.9355 26.7734 19.0654 26.486 19.0833C26.1986 19.1012 25.9156 19.0057 25.6978 18.8173L22.0304 15.5173C21.8137 15.3221 21.6834 15.0488 21.6681 14.7576C21.6528 14.4663 21.7539 14.1809 21.949 13.9641ZM19.9393 10.8885C20.0787 10.9265 20.2093 10.9915 20.3235 11.08C20.4378 11.1684 20.5335 11.2785 20.6052 11.4039C20.6769 11.5294 20.7232 11.6677 20.7415 11.811C20.7597 11.9544 20.7495 12.0999 20.7115 12.2393L17.4115 24.3393C17.3735 24.4787 17.3084 24.6092 17.22 24.7235C17.1315 24.8377 17.0215 24.9335 16.896 25.0052C16.7706 25.0769 16.6323 25.1232 16.4889 25.1414C16.3456 25.1597 16.2001 25.1495 16.0607 25.1115C15.9213 25.0735 15.7908 25.0084 15.6765 24.92C15.5623 24.8315 15.4665 24.7215 15.3948 24.596C15.25 24.3427 15.2118 24.0422 15.2885 23.7607L18.5885 11.6607C18.6265 11.5213 18.6915 11.3907 18.78 11.2765C18.8684 11.1622 18.9785 11.0665 19.1039 10.9948C19.2294 10.9231 19.3677 10.8768 19.511 10.8585C19.6544 10.8403 19.7999 10.8505 19.9393 10.8885Z" fill="#FF8000"/>
</svg>
