<svg width="35" height="35" viewBox="0 0 35 35" fill="none" xmlns="http://www.w3.org/2000/svg">
<rect width="35" height="35" rx="8" fill="#D0E3FD"/>
<path d="M8.90625 8.90625V26.0938H26.0938V8.90625H8.90625ZM10.4688 10.4688H24.5312V24.5312H10.4688V10.4688ZM20.8156 16.7188C19.7023 16.7188 18.9828 17.4313 18.9828 18.375C18.9828 19.3984 19.5844 19.8883 20.4891 20.2734L20.8016 20.4086C21.3742 20.6609 21.7148 20.8078 21.7148 21.2383C21.7148 21.6016 21.3812 21.8625 20.8617 21.8625C20.2461 21.8625 19.8961 21.5359 19.6289 21.0977L18.6055 21.6836C18.968 22.4109 19.725 22.9688 20.8906 22.9688C22.0781 22.9688 22.9688 22.3531 22.9688 21.225C22.9688 20.1703 22.3672 19.7023 21.2977 19.25L20.9867 19.1156C20.4453 18.8781 20.2148 18.7227 20.2148 18.3516C20.2148 18.0469 20.4445 17.8094 20.8164 17.8094C21.1797 17.8094 21.4086 17.9656 21.6242 18.3516L22.6055 17.7211C22.1898 16.9945 21.6172 16.7188 20.8164 16.7188H20.8156ZM16.2453 16.7937V21.0617C16.2453 21.6852 15.9781 21.8469 15.5695 21.8469C15.1398 21.8469 14.9539 21.5508 14.7609 21.2016L13.7375 21.8188C14.0344 22.4492 14.6195 22.9688 15.6219 22.9688C16.7344 22.9688 17.5 22.375 17.5 21.075V16.7937H16.2453Z" fill="#7074CA"/>
</svg>
